<?xml version="1.0" encoding="iso-8859-1"?>
<!-- Generator: Adobe Illustrator 19.2.1, SVG Export Plug-In . SVG Version: 6.00 Build 0)  -->
<svg version="1.1" id="Layer_1" xmlns="http://www.w3.org/2000/svg" xmlns:xlink="http://www.w3.org/1999/xlink" x="0px" y="0px"
	 viewBox="0 0 172 40" style="enable-background:new 0 0 172 40;" xml:space="preserve">
<g id="Background">
	<rect style="fill:#E6E6E6;" width="172" height="40"/>
</g>
<g id="Objects" style="opacity:0.5;">
	<g>
		<g>
			<defs>
				<rect id="SVGID_1_" y="-0.175" width="172" height="40.348"/>
			</defs>
			<clipPath id="SVGID_2_">
				<use xlink:href="#SVGID_1_"  style="overflow:visible;"/>
			</clipPath>
			<g style="clip-path:url(#SVGID_2_);">
				<path style="fill:#A4C754;" d="M68.035,117.711l-64.201,8.907c-2.792,0.388-4.598,3.154-3.829,5.866l4.734,16.69
					c0.373,1.312,1.302,2.393,2.543,2.958l22.182,10.102c1.217,0.553,2.612,0.557,3.831,0.008l44.185-19.897
					c2.319-1.045,3.366-3.76,2.348-6.092l-6.901-15.802C72.096,118.545,70.097,117.425,68.035,117.711z"/>
				<path style="fill:none;stroke:#ADCBFC;stroke-width:6.5008;stroke-miterlimit:10;" d="M178.696,9.7
					c-6.84-2.422-14.781,0.332-19.871,5.504s-7.679,12.354-8.812,19.521c-1.133,7.168-0.953,14.468-1.31,21.716
					c-0.357,7.248-1.302,14.627-4.491,21.145c-2.706,5.53-6.896,10.176-10.244,15.342c-11.108,17.135-12.299,38.641-13.152,59.043"
					/>
				<path style="fill:none;stroke:#FFFFFF;stroke-width:3.5754;stroke-miterlimit:10;" d="M1.303,99.114
					c-6.184,0-11.963-1.109-17.173-3.296c-8.629-3.62-15.473-10.275-18.775-18.259l-0.828-2.001l19.09-74.543l1.345-1.285
					c3.713-3.548,8.849-5.583,14.092-5.583c1.751,0,3.481,0.226,5.142,0.673c2.261,0.609,4.394,1.635,6.301,2.986
					c3.729,2.64,6.596,6.516,7.872,10.913c0.721,2.484,0.898,4.869,1.054,6.974c0.086,1.15,0.166,2.236,0.325,3.192
					c0.99,5.938,5.645,11.139,10.573,16.645c5.472,6.115,11.676,13.045,13.591,22.242c2.05,9.839-1.457,20.782-9.151,28.558
					C26.647,94.53,16.26,97.503,8.976,98.553C6.402,98.924,3.821,99.113,1.303,99.114C1.304,99.114,1.304,99.114,1.303,99.114z"/>
				<path style="fill:#ADCBFC;" d="M-28.638,75.074c2.776,6.712,8.586,11.939,15.283,14.75S0.859,93.156,8.048,92.12
					c8.193-1.181,16.269-4.478,22.092-10.362c5.823-5.885,9.096-14.556,7.408-22.66c-3.172-15.226-21.654-23.802-24.212-39.143
					c-0.521-3.128-0.327-6.377-1.211-9.423c-1.307-4.507-5.086-8.212-9.619-9.432c-4.532-1.219-9.66,0.089-13.053,3.332
					L-28.638,75.074z"/>
				<path style="fill:none;stroke:#FFFFFF;stroke-width:3.5754;stroke-miterlimit:10;" d="M-9.693-17.65
					c9.935,0.437,19.963,0.888,29.567,3.469S38.756-6.674,44.791,1.23c3.509,4.594,5.877,10.11,10.14,14.015
					c6.044,5.538,14.725,6.854,22.852,7.921c33.072,4.342,66.144,8.685,99.216,13.028"/>
				<path style="fill:#A4C754;" d="M46.635,17.272c-2.379-2.545-4.795-7.314-7.564-9.427c-2.682-2.047-6.062-2.161-9.044-0.021
					c-3.839,2.756-4.952,7.974-2.833,12.198c2.479,4.941,6.736,8.5,10.576,12.496c8.668,9.022,14.455,20.396,16.879,32.492
					c0.393,1.963,3.134,2.134,3.771,0.235l10.683-30.369c0.984-2.798-0.687-5.824-3.578-6.486
					C58.422,26.765,51.469,22.444,46.635,17.272z"/>
				<polyline style="fill:none;stroke:#FFFFFF;stroke-width:3.5754;stroke-miterlimit:10;" points="17.85,7.189 37.588,-5.851 
					78.963,-14.262 128.999,-37.011 				"/>
				<path style="fill:none;stroke:#FFFFFF;stroke-width:3.5754;stroke-miterlimit:10;" d="M86.696,24.336"/>
				<path style="fill:none;stroke:#FFFFFF;stroke-width:3.5754;stroke-miterlimit:10;" d="M44.198,67.541"/>
				<path style="fill:none;stroke:#FFFFFF;stroke-width:3.5754;stroke-miterlimit:10;" d="M44.083,66.552
					c2.51,4.082,6.78,7.039,11.484,7.953c0.196,0.038,0.393,0.072,0.59,0.103c6.588,1.035,12.947-2.93,15.187-9.211l14.642-41.06
					l-11.16-61.348"/>
				
					<line style="fill:none;stroke:#FFFFFF;stroke-width:3.5754;stroke-miterlimit:10;" x1="60.674" y1="74.771" x2="89.127" y2="139.811"/>
				<polyline style="fill:none;stroke:#FFFFFF;stroke-width:3.5754;stroke-miterlimit:10;" points="170.387,123.559 75.909,109.595 
					-11.636,123.559 				"/>
				<polyline style="fill:none;stroke:#FFFFFF;stroke-width:3.5754;stroke-miterlimit:10;" points="128.999,-40.261 124.79,29.339 
					110.146,80.391 105.077,113.906 				"/>
				
					<line style="fill:none;stroke:#FFFFFF;stroke-width:1.6252;stroke-miterlimit:10;" x1="26.495" y1="31.162" x2="50.122" y2="8.81"/>
				<path style="fill:none;stroke:#FFFFFF;stroke-width:1.6252;stroke-miterlimit:10;" d="M41.825,51.774
					c3.69-5.92,10.565-9.342,17.491-10.171c6.926-0.829,13.933,0.647,20.583,2.754"/>
				
					<line style="fill:none;stroke:#FFFFFF;stroke-width:1.6252;stroke-miterlimit:10;" x1="37.992" y1="21.062" x2="56.684" y2="42.044"/>
				<polygon style="fill:#C3C0BC;" points="61.607,-5.699 61.607,-3.099 75.8,-3.099 75.8,-8.462 				"/>
				<path style="fill:#A4C754;" d="M80.208,15.316c-0.23-1.32-0.885-2.726-2.15-3.168c-0.775-0.271-1.627-0.125-2.436,0.024
					c-1.248,0.231-2.495,0.461-3.742,0.692c-1.041,0.193-2.114,0.398-2.994,0.987c-0.88,0.589-1.52,1.67-1.266,2.698
					c0.189,0.765,0.833,1.351,1.553,1.67c0.719,0.32,1.516,0.414,2.298,0.504c2.507,0.289,5.014,0.578,7.521,0.866l0.696,0.086
					c0.395-0.135,0.789-0.27,1.184-0.406C80.387,18.021,80.438,16.636,80.208,15.316z"/>
				<path style="fill:none;stroke:#FFFFFF;stroke-width:1.6252;stroke-miterlimit:10;" d="M62.242,18.357
					c0.102-2.745,1.745-5.381,4.164-6.683c1.307-0.703,2.782-1.025,4.242-1.289c4.109-0.743,8.288-1.096,12.463-1.053"/>
				<rect x="44.083" y="-33.978" style="fill:#C3C0BC;" width="26.3" height="14.735"/>
				<rect x="27.478" y="-32" style="fill:#C3C0BC;" width="6.938" height="9.751"/>
				<rect x="17.564" y="-32" style="fill:#C3C0BC;" width="6.938" height="9.751"/>
				<rect x="7.65" y="-32" style="fill:#C3C0BC;" width="6.938" height="9.751"/>
				<path style="fill:none;stroke:#FFFFFF;stroke-width:1.6252;stroke-miterlimit:10;" d="M26.736-12.448
					c4.016-1.411,8.29-3.01,10.755-6.479c1.366-1.922,2.041-4.266,2.292-6.611c0.251-2.345,0.102-4.712-0.048-7.065"/>
				<circle style="fill:#A4C754;" cx="44.083" cy="-11.636" r="1.118"/>
				<circle style="fill:#A4C754;" cx="27.25" cy="-16.126" r="1.118"/>
				<circle style="fill:#A4C754;" cx="2.953" cy="-26.61" r="1.118"/>
				<circle style="fill:#A4C754;" cx="84.771" cy="-11.331" r="1.118"/>
				<circle style="fill:#A4C754;" cx="5.133" cy="116.083" r="1.118"/>
				<circle style="fill:#A4C754;" cx="117.038" cy="120.192" r="1.118"/>
				<path style="fill:#A4C754;" d="M150.091,125.562c-0.617,0-1.118,0.5-1.118,1.118c0,0.617,0.5,1.118,1.118,1.118"/>
				<circle style="fill:#A4C754;" cx="97.19" cy="131.008" r="1.118"/>
				<path style="fill:#A4C754;" d="M160.548,89.181c-0.617,0-1.118,0.5-1.118,1.118s0.5,1.118,1.118,1.118"/>
				<circle style="fill:#A4C754;" cx="85.796" cy="41.125" r="1.118"/>
				
					<line style="fill:none;stroke:#FFFFFF;stroke-width:1.6252;stroke-miterlimit:10;" x1="83.653" y1="9.272" x2="126.501" y2="1.06"/>
				<path style="fill:none;stroke:#FFFFFF;stroke-width:3.5754;stroke-miterlimit:10;" d="M128.607-9.648
					c4.488-0.257,9.054,1.316,12.433,4.283c4.004,3.516,6.185,8.67,9.815,12.571c3.271,3.516,7.618,5.89,12.153,7.468
					c4.536,1.578,9.291,2.409,14.022,3.234"/>
				<polyline style="fill:none;stroke:#FFFFFF;stroke-width:3.5754;stroke-miterlimit:10;" points="74.901,52.592 110.146,80.391 
					183.605,80.391 				"/>
				<path style="fill:#A4C754;" d="M127.772,85.815l-12.06-0.004c-0.799,0-1.479,0.584-1.601,1.374l-3.176,20.794
					c-0.135,0.889,0.479,1.719,1.371,1.847l5.172,0.74c0.812,0.116,1.585-0.393,1.791-1.186c1.955-7.493,5.283-14.706,9.809-20.995
					C129.851,87.312,129.095,85.815,127.772,85.815z"/>
				<path style="fill:#A4C754;" d="M167.925-31.23l-11.871-6.422c-0.398-0.215-0.862-0.269-1.298-0.151l-20.226,5.478
					c-0.718,0.194-1.236,0.819-1.295,1.561l-0.412,5.195c-0.074,0.93,0.591,1.764,1.516,1.881c4.857,0.618,9.26,3.855,12.577,7.532
					c1.164,1.291,2.279,2.766,3.914,3.355c1.506,0.543,3.169,0.225,4.737-0.098c4.757-0.98,9.514-1.96,14.271-2.94
					c0.947-0.195,1.56-1.118,1.372-2.066l-2.397-12.118C168.713-30.537,168.386-30.979,167.925-31.23z"/>
				<path style="fill:none;stroke:#FFFFFF;stroke-width:1.6252;stroke-miterlimit:10;" d="M22.054,94.949
					c4.794,8.171,11.525,15.196,19.484,20.335"/>
				<path style="fill:none;stroke:#FFFFFF;stroke-width:1.6252;stroke-miterlimit:10;" d="M79.484,44.151
					c13.599,0.261,27.198,0.521,40.796,0.783"/>
				<path style="fill:none;stroke:#FFFFFF;stroke-width:1.6252;stroke-miterlimit:10;" d="M171.633,81.363
					c-8.418,0.551-16.27,6.334-19.292,14.209c-1.743,4.543-1.947,9.502-2.547,14.332c-1.205,9.704-4.095,19.196-8.504,27.924"/>
				<rect x="21.898" y="-8.462" style="fill:#C3C0BC;" width="4.93" height="4.93"/>
				<rect x="13.447" y="-10.519" style="fill:#C3C0BC;" width="4.93" height="4.93"/>
				<rect x="5.185" y="-12.984" style="fill:#C3C0BC;" width="4.93" height="4.93"/>
				<rect x="155.869" y="39.482" style="fill:#C3C0BC;" width="10.726" height="21.127"/>
				<rect x="152.402" y="69.277" style="fill:#C3C0BC;" width="22.102" height="4.767"/>
				<polygon style="fill:#C3C0BC;" points="129.389,59.635 129.389,50.533 125.423,50.533 118.922,75.453 137.883,75.453 
					137.883,59.635 				"/>
				<rect x="134.687" y="48.095" style="fill:#C3C0BC;" width="7.963" height="7.963"/>
				<path style="fill:#A4C754;" d="M80.536-29.746l1.305,7.412c0.123,0.7,0.876,1.094,1.521,0.796l13.873-6.404
					c1.02-0.471,0.738-1.99-0.382-2.065l-15.179-1.008C80.974-31.061,80.414-30.438,80.536-29.746z"/>
				<polygon style="fill:#C3C0BC;" points="84.679,65.967 78.672,61.162 72.617,74.332 78.524,80.102 				"/>
				<g>
					<polygon style="fill:#C3C0BC;" points="96.429,75.365 86.782,67.649 80.513,82.045 89.638,90.962 					"/>
					<polygon style="fill:#C3C0BC;" points="98.533,77.047 91.627,92.905 101.1,102.16 104.593,81.895 					"/>
				</g>
				<polyline style="fill:#C3C0BC;" points="87.936,118.425 90.78,128.326 102.116,128.326 102.116,118.425 87.936,118.425 				"/>
				<rect x="106.896" y="119.4" style="fill:#C3C0BC;" width="5.579" height="11.689"/>
				<polygon style="fill:#C3C0BC;" points="101.911,48.095 99.882,48.095 99.882,59.255 110.742,59.255 114.1,48.095 				"/>
				<rect x="86.093" y="46.957" style="fill:#C3C0BC;" width="6.88" height="2.275"/>
				<rect x="86.093" y="50.635" style="fill:#C3C0BC;" width="6.88" height="2.275"/>
				<rect x="86.093" y="54.314" style="fill:#C3C0BC;" width="6.88" height="2.275"/>
				
					<line style="fill:none;stroke:#FFFFFF;stroke-width:1.6252;stroke-miterlimit:10;" x1="87.596" y1="62.605" x2="114.895" y2="62.605"/>
				<path style="fill:#A4C754;" d="M60.346,93.307l-3.971,12.961c-0.225,0.734,0.391,1.453,1.152,1.341l10.356-1.512
					c0.725-0.106,1.119-0.905,0.762-1.545L62.26,93.104C61.812,92.299,60.617,92.426,60.346,93.307z"/>
				
					<line style="fill:none;stroke:#FFFFFF;stroke-width:1.6252;stroke-miterlimit:10;" x1="148.148" y1="-6.409" x2="171.227" y2="-9.979"/>
				<polygon style="fill:#C3C0BC;" points="150.129,91.071 150.911,87.29 144.167,87.29 142.176,91.071 				"/>
				<polygon style="fill:#C3C0BC;" points="148.531,98.791 149.642,93.422 140.938,93.422 138.111,98.791 				"/>
				<polygon style="fill:#C3C0BC;" points="136.873,101.142 132.314,109.799 145.955,111.233 148.044,101.142 				"/>
				<rect x="156.461" y="93.422" style="fill:#C3C0BC;" width="12.978" height="13.869"/>
				<rect x="153.605" y="111.342" style="fill:#C3C0BC;" width="16.783" height="4.26"/>
				
					<line style="fill:none;stroke:#FFFFFF;stroke-width:1.6252;stroke-miterlimit:10;" x1="41.538" y1="116.083" x2="75.367" y2="149.346"/>
				
					<line style="fill:none;stroke:#FFFFFF;stroke-width:1.6252;stroke-miterlimit:10;" x1="19.352" y1="119.659" x2="14.91" y2="159.855"/>
				
					<line style="fill:none;stroke:#FFFFFF;stroke-width:1.6252;stroke-miterlimit:10;" x1="66.912" y1="71.66" x2="94.436" y2="111.701"/>
				<rect x="130.272" y="124.026" style="fill:#C3C0BC;" width="10.32" height="6.088"/>
				<polygon style="fill:#C3C0BC;" points="152.862,125.889 149.755,136.127 160.419,136.127 159.931,127.069 				"/>
				<rect x="2.937" y="104.003" style="fill:#C3C0BC;" width="21.724" height="8.938"/>
				<polygon style="fill:#C3C0BC;" points="43.268,82.712 32.121,99.114 44.522,105.117 52.072,86.233 				"/>
				<path style="fill:none;stroke:#F0C64C;stroke-width:3.9004;stroke-miterlimit:10;" d="M75.178,184.993L87.025,52.19
					c1.704-19.101,13.827-35.695,31.506-43.125l59.646-25.069"/>
				<path style="fill:none;stroke:#F0C64C;stroke-width:3.9004;stroke-miterlimit:10;" d="M186.176-30.02l-98.78,17.277
					c-24.169,4.227-49.053,0.971-71.322-9.333l-30.983-14.338"/>
				<g>
					<polygon style="fill:#C3C0BC;" points="75.867,99.141 77.722,102.864 83.601,101.131 81.098,97.215 					"/>
					<polygon style="fill:#C3C0BC;" points="80.202,95.814 77.1,90.962 72.617,92.613 75.139,97.677 					"/>
				</g>
			</g>
		</g>
	</g>
</g>
<g id="Designed_by_Freepik" style="opacity:0.7;">
</g>
<g>
	<g>
		<defs>
			<rect id="SVGID_3_" x="21.946" y="4.785" width="13.796" height="22"/>
		</defs>
		<clipPath id="SVGID_4_">
			<use xlink:href="#SVGID_3_"  style="overflow:visible;"/>
		</clipPath>
	</g>
</g>
<path style="fill:#FF8F00;" d="M27.348,5.5c-4.603,0-8.348,3.899-8.348,8.692c0,5.948,7.471,14.68,7.789,15.049
	c0.299,0.346,0.82,0.346,1.119,0c0.318-0.369,7.789-9.101,7.789-15.049C35.696,9.399,31.951,5.5,27.348,5.5z M27.348,18.565
	c-2.316,0-4.2-1.962-4.2-4.373s1.884-4.373,4.2-4.373s4.2,1.962,4.2,4.373S29.664,18.565,27.348,18.565z"/>
<path style="fill:#FF8F00;" d="M39.001,22c-2.685,0-4.87,2.274-4.87,5.07c0,3.47,4.358,8.563,4.543,8.778
	c0.174,0.202,0.479,0.202,0.652,0c0.186-0.215,4.543-5.309,4.543-8.778C43.87,24.274,41.686,22,39.001,22z M39.001,29.621
	c-1.351,0-2.45-1.144-2.45-2.551s1.099-2.551,2.45-2.551c1.351,0,2.45,1.144,2.45,2.551S40.351,29.621,39.001,29.621z"/>
<path style="fill:#FF8F00;" d="M16.001,19c-1.918,0-3.478,1.625-3.478,3.622c0,2.478,3.113,6.117,3.245,6.27
	c0.124,0.144,0.342,0.144,0.466,0c0.133-0.154,3.245-3.792,3.245-6.27C19.479,20.625,17.918,19,16.001,19z M16.001,24.444
	c-0.965,0-1.75-0.817-1.75-1.822s0.785-1.822,1.75-1.822c0.965,0,1.75,0.817,1.75,1.822S16.966,24.444,16.001,24.444z"/>
</svg>

